HIERARCHY
ROOT Hips
{
  OFFSET 12.5924 87.7646 8.5502
  CHANNELS 6 Xposition Yposition Zposition Zrotation Xrotation Yrotation
  JOINT RightUpLeg
  {
    OFFSET -9.27424 -1.51647 -0.00177081
    CHANNELS 3 Zrotation Xrotation Yrotation
    JOINT RightLeg
    {
      OFFSET -0.0218595 -41.9179 0.0996455
      CHANNELS 3 Zrotation Xrotation Yrotation
      JOINT RightFoot
      {
        OFFSET -0.864559 -41.9626 -0.357059
        CHANNELS 3 Zrotation Xrotation Yrotation
        End Site
        {
          OFFSET 0 -7.69 17.5
        }
      }
    }
  }
  JOINT LeftUpLeg
  {
    OFFSET 9.25718 -1.5867 0.052377
    CHANNELS 3 Zrotation Xrotation Yrotation
    JOINT LeftLeg
    {
      OFFSET 0.0916619 -41.8676 0.000817906
      CHANNELS 3 Zrotation Xrotation Yrotation
      JOINT LeftFoot
      {
        OFFSET -0.467602 -41.8546 0.208385
        CHANNELS 3 Zrotation Xrotation Yrotation
        End Site
        {
          OFFSET 0 -7.69 17.5
        }
      }
    }
  }
  JOINT Spine
  {
    OFFSET 0.0181296 14.2981 0.0454815
    CHANNELS 3 Zrotation Xrotation Yrotation
    JOINT Spine1
    {
      OFFSET 0.0179205 9.71532 0.0144816
      CHANNELS 3 Zrotation Xrotation Yrotation
      JOINT Spine2
      {
        OFFSET 0.0460832 10.1118 -0.00781291
        CHANNELS 3 Zrotation Xrotation Yrotation
        JOINT Spine3
        {
          OFFSET 0.0326005 9.72657 -0.000132442
          CHANNELS 3 Zrotation Xrotation Yrotation
          JOINT Neck
          {
            OFFSET -0.0594321 10.3688 0.0892585
            CHANNELS 3 Zrotation Xrotation Yrotation
            JOINT Head
            {
              OFFSET -0.027184 9.52116 0.11923
              CHANNELS 3 Zrotation Xrotation Yrotation
              End Site
              {
                OFFSET 0 15.95 0
              }
            }
          }
          JOINT RightShoulder
          {
            OFFSET -3.18249 6.94712 0.0315742
            CHANNELS 3 Zrotation Xrotation Yrotation
            JOINT RightArm
            {
              OFFSET -12.6859 -0.0281953 -0.0223312
              CHANNELS 3 Zrotation Xrotation Yrotation
              JOINT RightForeArm
              {
                OFFSET -26.4349 -0.138904 0.103809
                CHANNELS 3 Zrotation Xrotation Yrotation
                JOINT RightHand
                {
                  OFFSET -26.0404 -0.036643 0.02476
                  CHANNELS 3 Zrotation Xrotation Yrotation
                  JOINT RightHandThumb1
                  {
                    OFFSET -2.48905 0.190105 3.12053
                    CHANNELS 3 Zrotation Xrotation Yrotation
                    JOINT RightHandThumb2
                    {
                      OFFSET -3.68274 0 0
                      CHANNELS 3 Zrotation Xrotation Yrotation
                      JOINT RightHandThumb3
                      {
                        OFFSET -2.55832 0 0
                        CHANNELS 3 Zrotation Xrotation Yrotation
                        End Site
                        {
                          OFFSET -2.194 0 0
                        }
                      }
                    }
                  }
                  JOINT RightInHandIndex
                  {
                    OFFSET -3.22368 0.508421 1.97842
                    CHANNELS 3 Zrotation Xrotation Yrotation
                    JOINT RightHandIndex1
                    {
                      OFFSET -5.21684 -0.091368 0.999158
                      CHANNELS 3 Zrotation Xrotation Yrotation
                      JOINT RightHandIndex2
                      {
                        OFFSET -3.61937 0 0
                        CHANNELS 3 Zrotation Xrotation Yrotation
                        JOINT RightHandIndex3
                        {
                          OFFSET -2.0521 0 0
                          CHANNELS 3 Zrotation Xrotation Yrotation
                          End Site
                          {
                            OFFSET -1.805 0 0
                          }
                        }
                      }
                    }
                  }
                  JOINT RightInHandMiddle
                  {
                    OFFSET -3.38211 0.517263 0.756737
                    CHANNELS 3 Zrotation Xrotation Yrotation
                    JOINT RightHandMiddle1
                    {
                      OFFSET -5.17411 -0.084 0.313895
                      CHANNELS 3 Zrotation Xrotation Yrotation
                      JOINT RightHandMiddle2
                      {
                        OFFSET -3.94947 0 0
                        CHANNELS 3 Zrotation Xrotation Yrotation
                        JOINT RightHandMiddle3
                        {
                          OFFSET -2.47579 0 0
                          CHANNELS 3 Zrotation Xrotation Yrotation
                          End Site
                          {
                            OFFSET -1.975 0 0
                          }
                        }
                      }
                    }
                  }
                  JOINT RightInHandRing
                  {
                    OFFSET -3.36516 0.537895 -0.128947
                    CHANNELS 3 Zrotation Xrotation Yrotation
                    JOINT RightHandRing1
                    {
                      OFFSET -4.63474 -0.022105 -0.478947
                      CHANNELS 3 Zrotation Xrotation Yrotation
                      JOINT RightHandRing2
                      {
                        OFFSET -3.44238 0 0
                        CHANNELS 3 Zrotation Xrotation Yrotation
                        JOINT RightHandRing3
                        {
                          OFFSET -2.3881 0 0
                          CHANNELS 3 Zrotation Xrotation Yrotation
                          End Site
                          {
                            OFFSET -1.857 0 0
                          }
                        }
                      }
                    }
                  }
                  JOINT RightInHandPinky
                  {
                    OFFSET -3.16105 0.469368 -1.20179
                    CHANNELS 3 Zrotation Xrotation Yrotation
                    JOINT RightHandPinky1
                    {
                      OFFSET -4.14105 -0.022105 -1.09053
                      CHANNELS 3 Zrotation Xrotation Yrotation
                      JOINT RightHandPinky2
                      {
                        OFFSET -2.75653 0 0
                        CHANNELS 3 Zrotation Xrotation Yrotation
                        JOINT RightHandPinky3
                        {
                          OFFSET -1.74189 0 0
                          CHANNELS 3 Zrotation Xrotation Yrotation
                          End Site
                          {
                            OFFSET -1.645 0 0
                          }
                        }
                      }
                    }
                  }
                }
              }
            }
          }
          JOINT LeftShoulder
          {
            OFFSET 3.21289 6.91298 -0.0113859
            CHANNELS 3 Zrotation Xrotation Yrotation
            JOINT LeftArm
            {
              OFFSET 12.7691 -0.0256594 -0.0399854
              CHANNELS 3 Zrotation Xrotation Yrotation
              JOINT LeftForeArm
              {
                OFFSET 26.4177 -0.0137926 -0.00219879
                CHANNELS 3 Zrotation Xrotation Yrotation
                JOINT LeftHand
                {
                  OFFSET 26.0013 -0.0633708 -0.0119906
                  CHANNELS 3 Zrotation Xrotation Yrotation
                  JOINT LeftHandThumb1
                  {
                    OFFSET 2.48905 0.190105 3.12053
                    CHANNELS 3 Zrotation Xrotation Yrotation
                    JOINT LeftHandThumb2
                    {
                      OFFSET 3.68274 0 0
                      CHANNELS 3 Zrotation Xrotation Yrotation
                      JOINT LeftHandThumb3
                      {
                        OFFSET 2.55832 0 0
                        CHANNELS 3 Zrotation Xrotation Yrotation
                        End Site
                        {
                          OFFSET 2.194 0 0
                        }
                      }
                    }
                  }
                  JOINT LeftInHandIndex
                  {
                    OFFSET 3.22368 0.508421 1.97842
                    CHANNELS 3 Zrotation Xrotation Yrotation
                    JOINT LeftHandIndex1
                    {
                      OFFSET 5.21684 -0.091368 0.999158
                      CHANNELS 3 Zrotation Xrotation Yrotation
                      JOINT LeftHandIndex2
                      {
                        OFFSET 3.61937 0 0
                        CHANNELS 3 Zrotation Xrotation Yrotation
                        JOINT LeftHandIndex3
                        {
                          OFFSET 2.0521 0 0
                          CHANNELS 3 Zrotation Xrotation Yrotation
                          End Site
                          {
                            OFFSET 1.805 0 0
                          }
                        }
                      }
                    }
                  }
                  JOINT LeftInHandMiddle
                  {
                    OFFSET 3.38211 0.517263 0.756737
                    CHANNELS 3 Zrotation Xrotation Yrotation
                    JOINT LeftHandMiddle1
                    {
                      OFFSET 5.17411 -0.084 0.313895
                      CHANNELS 3 Zrotation Xrotation Yrotation
                      JOINT LeftHandMiddle2
                      {
                        OFFSET 3.94947 0 0
                        CHANNELS 3 Zrotation Xrotation Yrotation
                        JOINT LeftHandMiddle3
                        {
                          OFFSET 2.47579 0 0
                          CHANNELS 3 Zrotation Xrotation Yrotation
                          End Site
                          {
                            OFFSET 1.975 0 0
                          }
                        }
                      }
                    }
                  }
                  JOINT LeftInHandRing
                  {
                    OFFSET 3.36516 0.537895 -0.128947
                    CHANNELS 3 Zrotation Xrotation Yrotation
                    JOINT LeftHandRing1
                    {
                      OFFSET 4.63474 -0.022105 -0.478947
                      CHANNELS 3 Zrotation Xrotation Yrotation
                      JOINT LeftHandRing2
                      {
                        OFFSET 3.44238 0 0
                        CHANNELS 3 Zrotation Xrotation Yrotation
                        JOINT LeftHandRing3
                        {
                          OFFSET 2.3881 0 0
                          CHANNELS 3 Zrotation Xrotation Yrotation
                          End Site
                          {
                            OFFSET 1.857 0 0
                          }
                        }
                      }
                    }
                  }
                  JOINT LeftInHandPinky
                  {
                    OFFSET 3.16105 0.469368 -1.20179
                    CHANNELS 3 Zrotation Xrotation Yrotation
                    JOINT LeftHandPinky1
                    {
                      OFFSET 4.14105 -0.022105 -1.09053
                      CHANNELS 3 Zrotation Xrotation Yrotation
                      JOINT LeftHandPinky2
                      {
                        OFFSET 2.75653 0 0
                        CHANNELS 3 Zrotation Xrotation Yrotation
                        JOINT LeftHandPinky3
                        {
                          OFFSET 1.74189 0 0
                          CHANNELS 3 Zrotation Xrotation Yrotation
                          End Site
                          {
                            OFFSET 1.645 0 0
                          }
                        }
                      }
                    }
                  }
                }
              }
            }
          }
        }
      }
    }
  }
}
MOTION
Frames: 3
Frame Time: 0.00833333
5.999788497925848105e+02 -2.199624772831930766e-02 1.658216652329142504e-01 1.254556098696682498e-01 -2.173637837560447872e-02 3.471679397276189460e-02 -2.153740278899285709e-01 -1.472888352587832239e-01 -3.349235860810604315e-01 3.220804024208049482e-03 1.452633549207327755e-02 -3.768011620330439376e-02 5.415945707674431342e-02 1.930156143227413149e-03 1.882376477193831998e-01 -4.152684176402322569e-01 -3.124110338322240166e-01 -4.308369670479115787e-01 2.807823552142743040e-01 8.826970529464367443e-02 -3.354657585358505334e-01 6.287784824767567171e-02 -2.383638589381840284e-02 4.314866508232691467e-01 1.185527076039191996e-01 -6.777775109515560281e-02 -4.048407875215314089e-01 2.157761900433119093e-02 1.990931739553732094e-03 -9.920614000452557257e-02 3.651010861233182359e-02 -4.683962035475863414e-03 -1.700688598469801138e-01 -2.036456882339482410e-02 -1.626430758542910318e-02 3.884858669967889561e-02 -1.523081415595141548e-03 -5.270070822926171614e-03 -9.789980062213270162e-02 -5.967019849236325779e-01 -3.554042901406135879e-01 9.179717814383266949e-01 2.063282761395195397e-01 1.148040714424428399e-01 4.598708073583049893e-01 7.380416996869817448e-01 -7.737520008677193362e-01 -3.363182274533156324e-01 -1.057145958387639917e+00 1.551367177621544302e+00 -8.399387355877157013e-01 -1.507773357217716548e+00 -9.782232300628488364e-01 9.047645308303204903e-01 0.000000000000000000e+00 0.000000000000000000e+00 0.000000000000000000e+00 7.039471522168513451e-17 2.017375824471858431e-15 0.000000000000000000e+00 5.902817222057181654e-15 6.233676197887317540e-16 0.000000000000000000e+00 1.131859914879254022e-15 4.734055921315942067e-16 -1.219946516032416059e-15 0.000000000000000000e+00 0.000000000000000000e+00 0.000000000000000000e+00 0.000000000000000000e+00 6.387102861400439787e-15 2.025937512927817014e-15 0.000000000000000000e+00 8.773251077777555509e-16 -3.603919494292540753e-16 1.131859914879254022e-15 4.734055921315942067e-16 -1.219946516032416059e-15 0.000000000000000000e+00 -3.837551784671440106e-15 -1.908335477719759874e-15 0.000000000000000000e+00 -1.190881383294352643e-15 -9.270730570751630386e-16 0.000000000000000000e+00 1.648086939439793666e-16 -2.148750222189234575e-15 1.131859914879254022e-15 4.734055921315942067e-16 -1.219946516032416059e-15 0.000000000000000000e+00 0.000000000000000000e+00 0.000000000000000000e+00 0.000000000000000000e+00 -1.655520903541667519e-15 7.472095136074812885e-16 0.000000000000000000e+00 -1.313613052292412735e-15 -4.150370788882542523e-15 1.131859914879254022e-15 4.734055921315942067e-16 -1.219946516032416059e-15 0.000000000000000000e+00 0.000000000000000000e+00 0.000000000000000000e+00 0.000000000000000000e+00 2.793028788336262541e-16 -1.383236711730358281e-15 0.000000000000000000e+00 1.477923219513264119e-15 -2.137068059377355429e-15 2.458256476529734058e-01 1.012882991956520901e-01 2.113805137376650184e-02 -1.075232361083099608e+00 7.451540912826606355e-01 9.073809863015780408e-01 -1.955174638948085963e+00 4.149599970643753077e-01 -2.705970000683012522e+00 1.155312283472848534e-01 5.407694782393132060e-01 3.516414534491485444e-01 0.000000000000000000e+00 0.000000000000000000e+00 0.000000000000000000e+00 -7.314405956637659073e-16 1.235114007246231469e-15 0.000000000000000000e+00 -4.745062367540285356e-15 1.897722821680468464e-15 0.000000000000000000e+00 -2.158206379465000332e-15 1.648219803162294114e-15 -5.744446931176891479e-17 0.000000000000000000e+00 0.000000000000000000e+00 0.000000000000000000e+00 0.000000000000000000e+00 -1.581558219938895259e-16 5.011255069021451380e-15 0.000000000000000000e+00 -4.500791820976944062e-16 4.187239232143436761e-15 -2.158206379465000332e-15 1.648219803162294114e-15 -5.744446931176891479e-17 0.000000000000000000e+00 9.601535815734741677e-17 -5.154043882832438725e-16 0.000000000000000000e+00 1.646855229831026165e-15 -5.418515052795325110e-16 0.000000000000000000e+00 4.164578296050202467e-15 5.660524116626232787e-15 -2.158206379465000332e-15 1.648219803162294114e-15 -5.744446931176891479e-17 0.000000000000000000e+00 0.000000000000000000e+00 0.000000000000000000e+00 0.000000000000000000e+00 8.358889916921559898e-16 -1.133188758984016777e-15 0.000000000000000000e+00 7.210315477175347264e-16 4.813307660865839273e-15 -2.158206379465000332e-15 1.648219803162294114e-15 -5.744446931176891479e-17 0.000000000000000000e+00 0.000000000000000000e+00 0.000000000000000000e+00 0.000000000000000000e+00 2.946032421339102655e-15 -8.755634716940177939e-15 0.000000000000000000e+00 2.707729578748983355e-15 3.986393530829878352e-15
5.999810147612209903e+02 -1.925862855600383658e-02 1.579346237258338892e-01 1.023289069979626958e-01 -2.946961667435604032e-02 1.008950311697759672e-01 -3.117979404563897550e-01 -1.351744070869340675e-01 -4.333854138655645616e-01 -4.592754327738514386e-03 2.070618701697938061e-02 -1.842179020395184191e-02 4.747324227374434547e-02 -8.956882605003263845e-03 1.614554247289288758e-01 -4.952387131592033143e-01 -3.040020610726287265e-01 -5.151121675961745083e-01 2.630756247539944859e-01 6.416917664375107466e-02 -3.188545449005200094e-01 5.244356921978884922e-02 -1.582311141047848882e-02 4.065224645328865960e-01 9.670223896519090923e-02 -7.350143550582668994e-02 -3.771385344741780554e-01 1.667722198718355267e-02 -3.712603114882096107e-03 -9.304025821866525325e-02 2.838883049362370126e-02 -1.317364421869275139e-02 -1.596116095502089216e-01 -1.808958833735907837e-02 -1.474757379017114720e-02 3.520658437522645318e-02 -1.885115935959491909e-03 -4.634214462697480372e-03 -8.444965021456388166e-02 -5.360134902909209353e-01 -3.071321316829879744e-01 8.304159147119359874e-01 1.637261083558499974e-01 1.190563863073069301e-01 4.689459077980663304e-01 4.949119888305882342e-01 -6.505092189940988590e-01 -1.975479027435057544e-01 -9.162012534603614089e-01 1.373593368206287080e+00 -6.870958675201308541e-01 -1.436094224097470562e+00 -8.607799620035726518e-01 7.635221237014652163e-01 0.000000000000000000e+00 0.000000000000000000e+00 0.000000000000000000e+00 1.639883383264256795e-16 1.067291217544708506e-15 0.000000000000000000e+00 3.569609069574984036e-15 -3.997847812092003476e-16 0.000000000000000000e+00 6.351696092071899546e-16 7.496090628688374756e-16 -9.382599322569188207e-16 0.000000000000000000e+00 0.000000000000000000e+00 0.000000000000000000e+00 0.000000000000000000e+00 4.429843735381260748e-15 1.140895586901135323e-15 0.000000000000000000e+00 4.107222497197407308e-16 -7.608299003774377949e-16 6.351696092071899546e-16 7.496090628688374756e-16 -9.382599322569188207e-16 0.000000000000000000e+00 -3.184166518307292705e-15 -2.572483978295275545e-15 0.000000000000000000e+00 -9.473267918030338354e-16 -9.206017066604722338e-16 0.000000000000000000e+00 1.964346422523177141e-16 -2.681376776019944678e-15 6.351696092071899546e-16 7.496090628688374756e-16 -9.382599322569188207e-16 0.000000000000000000e+00 0.000000000000000000e+00 0.000000000000000000e+00 0.000000000000000000e+00 -1.710748765799551022e-15 4.606226319171222121e-16 0.000000000000000000e+00 -1.461179247558444287e-15 -3.663386925124744464e-15 6.351696092071899546e-16 7.496090628688374756e-16 -9.382599322569188207e-16 0.000000000000000000e+00 0.000000000000000000e+00 0.000000000000000000e+00 0.000000000000000000e+00 2.154833229796139174e-16 -2.987370830481056171e-15 0.000000000000000000e+00 1.196481029044325069e-15 -1.287720331383410665e-15 2.139887142050047597e-01 1.205001038339516550e-01 4.926844309946332157e-02 -1.034437826291793316e-01 4.431970544389901567e-01 -1.919206383010322037e-01 -1.816189367808329180e+00 -5.342986486959888648e-01 -2.098987267047912830e+00 1.111297003470089750e-01 7.318235656369382891e-01 3.237648294087155931e-01 0.000000000000000000e+00 0.000000000000000000e+00 0.000000000000000000e+00 -8.555075088954833321e-16 1.070082116506391222e-16 0.000000000000000000e+00 -4.174857772759972432e-15 1.683143518480152111e-15 0.000000000000000000e+00 -1.128196665478865864e-15 9.959546690771787683e-16 -1.128511048682008403e-16 0.000000000000000000e+00 0.000000000000000000e+00 0.000000000000000000e+00 0.000000000000000000e+00 -2.657856796502544399e-16 3.018136170988299211e-15 0.000000000000000000e+00 -6.448485235243568752e-16 3.360300057131221907e-15 -1.128196665478865864e-15 9.959546690771787683e-16 -1.128511048682008403e-16 0.000000000000000000e+00 -4.730773629727667755e-16 -4.228953135673706980e-16 0.000000000000000000e+00 6.666225637941654674e-16 -7.844292628462686633e-16 0.000000000000000000e+00 3.148531708329079001e-15 4.357816111145986313e-15 -1.128196665478865864e-15 9.959546690771787683e-16 -1.128511048682008403e-16 0.000000000000000000e+00 0.000000000000000000e+00 0.000000000000000000e+00 0.000000000000000000e+00 8.848969311461628824e-17 -1.665126601823921475e-15 0.000000000000000000e+00 5.479126255721193832e-16 5.278746962851055914e-15 -1.128196665478865864e-15 9.959546690771787683e-16 -1.128511048682008403e-16 0.000000000000000000e+00 0.000000000000000000e+00 0.000000000000000000e+00 0.000000000000000000e+00 2.930193822728386763e-15 -7.824344273643652746e-15 0.000000000000000000e+00 1.919581520690726260e-15 3.746066864054044073e-15
5.999853068002943246e+02 -1.616538395798806232e-02 1.471607349957395894e-01 8.056189528737817129e-02 -3.764550808975219987e-02 1.522756276410334175e-01 -3.771513997788825678e-01 -1.232065881573005950e-01 -5.023810994187786205e-01 -1.823016552229738546e-02 2.587956775137391016e-02 7.391373681870925735e-03 4.081893778460800315e-02 -1.794217332573809498e-02 1.329754799854813707e-01 -5.415219603065011267e-01 -2.882113859376261300e-01 -5.684580331722820512e-01 2.365905238027223578e-01 4.225019050234415929e-02 -2.933259797385200929e-01 4.060528431224882245e-02 -1.085871315450035943e-02 3.765716023452029826e-01 7.615456560652654472e-02 -7.536399462631657165e-02 -3.437323588533618413e-01 1.224528127810938991e-02 -8.278800406588279759e-03 -8.534713214907496681e-02 2.093172996683451831e-02 -1.947906004197135985e-02 -1.464206976271807958e-01 -1.585996600991229979e-02 -1.345453247798982475e-02 3.120821743638294010e-02 -2.374938432494725846e-03 -4.594569326744025670e-03 -6.967783748609183980e-02 -4.739675221308195519e-01 -2.641963354618755977e-01 7.344951690668116706e-01 1.157273542893682838e-01 1.253941835199315069e-01 4.743497408772754387e-01 2.878867335400426830e-01 -5.229558380536051265e-01 -7.763271111746826436e-02 -7.585218117839495067e-01 1.158755614238458520e+00 -5.221529028970135489e-01 -1.329190425693209665e+00 -6.925884820152343746e-01 5.780851815164933516e-01 0.000000000000000000e+00 0.000000000000000000e+00 0.000000000000000000e+00 1.071561765222873450e-16 1.059748958046752052e-16 0.000000000000000000e+00 1.102059865315631955e-15 -1.339191362954180676e-15 0.000000000000000000e+00 1.383095858682297776e-16 9.745754916311602099e-16 -6.117358312630956017e-16 0.000000000000000000e+00 0.000000000000000000e+00 0.000000000000000000e+00 0.000000000000000000e+00 2.521047185667139596e-15 3.606698931153860249e-16 0.000000000000000000e+00 4.597314761935271816e-17 -1.029002481420876643e-15 1.383095858682297776e-16 9.745754916311602099e-16 -6.117358312630956017e-16 0.000000000000000000e+00 -2.499132915550779837e-15 -3.100293535883258653e-15 0.000000000000000000e+00 -7.346906917317858392e-16 -8.186113651441532415e-16 0.000000000000000000e+00 2.193429017207984999e-16 -2.996635387653462002e-15 1.383095858682297776e-16 9.745754916311602099e-16 -6.117358312630956017e-16 0.000000000000000000e+00 0.000000000000000000e+00 0.000000000000000000e+00 0.000000000000000000e+00 -1.737974702229087474e-15 3.500574385207694260e-16 0.000000000000000000e+00 -1.637964048268054853e-15 -3.178813562741684328e-15 1.383095858682297776e-16 9.745754916311602099e-16 -6.117358312630956017e-16 0.000000000000000000e+00 0.000000000000000000e+00 0.000000000000000000e+00 0.000000000000000000e+00 1.598709323757799490e-16 -4.356832383151486500e-15 0.000000000000000000e+00 8.801497983464155567e-16 -4.745489772989329401e-16 1.750089871742983860e-01 1.367488165736235883e-01 7.584765955102203139e-02 8.106605805496235329e-01 1.694663359760373855e-01 -1.208093066123239856e+00 -1.626409433927207715e+00 -1.416236165820436099e+00 -1.445071415542397153e+00 5.245825889840466383e-02 8.899995487105750724e-01 2.481845468683848144e-01 0.000000000000000000e+00 0.000000000000000000e+00 0.000000000000000000e+00 -8.142199080662848483e-16 -9.722343605081491176e-16 0.000000000000000000e+00 -3.551161782124172837e-15 1.490455608223533723e-15 0.000000000000000000e+00 -1.454841165745803671e-16 4.345312895953629169e-16 -1.141093094130513176e-16 0.000000000000000000e+00 0.000000000000000000e+00 0.000000000000000000e+00 0.000000000000000000e+00 -4.047415772399842055e-16 1.102780444153315456e-15 0.000000000000000000e+00 -8.976874616211271686e-16 2.568718618022257779e-15 -1.454841165745803671e-16 4.345312895953629169e-16 -1.141093094130513176e-16 0.000000000000000000e+00 -8.609490913650884788e-16 -4.373893807514114661e-16 0.000000000000000000e+00 -4.039931475866073709e-16 -9.227681045526361426e-16 0.000000000000000000e+00 1.970313201064516593e-15 3.044426104068451080e-15 -1.454841165745803671e-16 4.345312895953629169e-16 -1.141093094130513176e-16 0.000000000000000000e+00 0.000000000000000000e+00 0.000000000000000000e+00 0.000000000000000000e+00 -5.858917393988744051e-16 -2.053313327692411480e-15 0.000000000000000000e+00 3.609420857401734191e-16 5.665502415277241043e-15 -1.454841165745803671e-16 4.345312895953629169e-16 -1.141093094130513176e-16 0.000000000000000000e+00 0.000000000000000000e+00 0.000000000000000000e+00 0.000000000000000000e+00 2.807668748557389901e-15 -6.730261596803882256e-15 0.000000000000000000e+00 1.054115839082235888e-15 3.392612840849645006e-15
